<?xml version="1.0" encoding="UTF-8"?>
<!DOCTYPE svg PUBLIC "-//W3C//DTD SVG 1.1//EN" "http://www.w3.org/Graphics/SVG/1.1/DTD/svg11.dtd">
<svg version="1.2" width="297mm" height="210mm" viewBox="0 0 29700 21000" preserveAspectRatio="xMidYMid" fill-rule="evenodd" stroke-width="28.222" stroke-linejoin="round" xmlns="http://www.w3.org/2000/svg" xmlns:ooo="http://xml.openoffice.org/svg/export" xmlns:xlink="http://www.w3.org/1999/xlink" xmlns:presentation="http://sun.com/xmlns/staroffice/presentation" xmlns:smil="http://www.w3.org/2001/SMIL20/" xmlns:anim="urn:oasis:names:tc:opendocument:xmlns:animation:1.0" xml:space="preserve">
 <defs class="ClipPathGroup">
  <clipPath id="presentation_clip_path" clipPathUnits="userSpaceOnUse">
   <rect x="0" y="0" width="29700" height="21000"/>
  </clipPath>
  <clipPath id="presentation_clip_path_shrink" clipPathUnits="userSpaceOnUse">
   <rect x="29" y="21" width="29641" height="20958"/>
  </clipPath>
 </defs>
 <defs class="TextShapeIndex">
  <g ooo:slide="id1" ooo:id-list="id3 id4 id5 id6 id7 id8 id9 id10 id11 id12 id13 id14"/>
 </defs>
 <defs class="EmbeddedBulletChars">
  <g id="bullet-char-template-57356" transform="scale(0.00048828125,-0.00048828125)">
   <path d="M 580,1141 L 1163,571 580,0 -4,571 580,1141 Z"/>
  </g>
  <g id="bullet-char-template-57354" transform="scale(0.00048828125,-0.00048828125)">
   <path d="M 8,1128 L 1137,1128 1137,0 8,0 8,1128 Z"/>
  </g>
  <g id="bullet-char-template-10146" transform="scale(0.00048828125,-0.00048828125)">
   <path d="M 174,0 L 602,739 174,1481 1456,739 174,0 Z M 1358,739 L 309,1346 659,739 1358,739 Z"/>
  </g>
  <g id="bullet-char-template-10132" transform="scale(0.00048828125,-0.00048828125)">
   <path d="M 2015,739 L 1276,0 717,0 1260,543 174,543 174,936 1260,936 717,1481 1274,1481 2015,739 Z"/>
  </g>
  <g id="bullet-char-template-10007" transform="scale(0.00048828125,-0.00048828125)">
   <path d="M 0,-2 C -7,14 -16,27 -25,37 L 356,567 C 262,823 215,952 215,954 215,979 228,992 255,992 264,992 276,990 289,987 310,991 331,999 354,1012 L 381,999 492,748 772,1049 836,1024 860,1049 C 881,1039 901,1025 922,1006 886,937 835,863 770,784 769,783 710,716 594,584 L 774,223 C 774,196 753,168 711,139 L 727,119 C 717,90 699,76 672,76 641,76 570,178 457,381 L 164,-76 C 142,-110 111,-127 72,-127 30,-127 9,-110 8,-76 1,-67 -2,-52 -2,-32 -2,-23 -1,-13 0,-2 Z"/>
  </g>
  <g id="bullet-char-template-10004" transform="scale(0.00048828125,-0.00048828125)">
   <path d="M 285,-33 C 182,-33 111,30 74,156 52,228 41,333 41,471 41,549 55,616 82,672 116,743 169,778 240,778 293,778 328,747 346,684 L 369,508 C 377,444 397,411 428,410 L 1163,1116 C 1174,1127 1196,1133 1229,1133 1271,1133 1292,1118 1292,1087 L 1292,965 C 1292,929 1282,901 1262,881 L 442,47 C 390,-6 338,-33 285,-33 Z"/>
  </g>
  <g id="bullet-char-template-9679" transform="scale(0.00048828125,-0.00048828125)">
   <path d="M 813,0 C 632,0 489,54 383,161 276,268 223,411 223,592 223,773 276,916 383,1023 489,1130 632,1184 813,1184 992,1184 1136,1130 1245,1023 1353,916 1407,772 1407,592 1407,412 1353,268 1245,161 1136,54 992,0 813,0 Z"/>
  </g>
  <g id="bullet-char-template-8226" transform="scale(0.00048828125,-0.00048828125)">
   <path d="M 346,457 C 273,457 209,483 155,535 101,586 74,649 74,723 74,796 101,859 155,911 209,963 273,989 346,989 419,989 480,963 531,910 582,859 608,796 608,723 608,648 583,586 532,535 482,483 420,457 346,457 Z"/>
  </g>
  <g id="bullet-char-template-8211" transform="scale(0.00048828125,-0.00048828125)">
   <path d="M -4,459 L 1135,459 1135,606 -4,606 -4,459 Z"/>
  </g>
  <g id="bullet-char-template-61548" transform="scale(0.00048828125,-0.00048828125)">
   <path d="M 173,740 C 173,903 231,1043 346,1159 462,1274 601,1332 765,1332 928,1332 1067,1274 1183,1159 1299,1043 1357,903 1357,740 1357,577 1299,437 1183,322 1067,206 928,148 765,148 601,148 462,206 346,322 231,437 173,577 173,740 Z"/>
  </g>
 </defs>
 <g>
  <g id="id2" class="Master_Slide">
   <g id="bg-id2" class="Background"/>
   <g id="bo-id2" class="BackgroundObjects"/>
  </g>
 </g>
 <g class="SlideGroup">
  <g>
   <g id="container-id1">
    <g id="id1" class="Slide" clip-path="url(#presentation_clip_path)">
     <g class="Page">
      <g class="Group">
       <g class="com.sun.star.drawing.ClosedBezierShape">
        <g id="id3">
         <rect class="BoundingBox" stroke="none" fill="none" x="5186" y="949" width="8568" height="19103"/>
         <path fill="none" stroke="rgb(255,255,255)" stroke-width="100" stroke-linejoin="round" d="M 12754,2703 C 11683,2703 10876,3060 10333,3773 9790,4487 9518,5436 9518,6620 L 9518,7179 12437,7179 C 12697,7179 12904,7256 13058,7410 13212,7564 13289,7763 13289,8006 13289,8233 13212,8424 13058,8578 12904,8732 12697,8809 12437,8809 L 9518,8809 9518,19052 C 9518,19344 9433,19575 9263,19745 9092,19915 8853,20000 8545,20000 8285,20000 8070,19915 7900,19745 7730,19575 7645,19344 7645,19052 L 7645,8809 6088,8809 C 5828,8809 5621,8732 5467,8578 5313,8424 5236,8233 5236,8006 5236,7763 5313,7564 5467,7410 5621,7256 5828,7179 6088,7179 L 7645,7179 7645,6717 C 7645,4982 8091,3595 8983,2557 9875,1519 11132,1000 12754,1000 13029,1000 13256,1081 13435,1243 13613,1405 13702,1608 13702,1851 13702,2095 13613,2297 13435,2460 13256,2622 13029,2703 12754,2703 Z"/>
        </g>
       </g>
       <g class="com.sun.star.drawing.ClosedBezierShape">
        <g id="id4">
         <rect class="BoundingBox" stroke="none" fill="none" x="9923" y="9302" width="9100" height="10699"/>
         <path fill="rgb(255,255,255)" stroke="none" d="M 15164,20000 C 14166,19999 13270,19766 12477,19299 11683,18831 11060,18191 10605,17378 10151,16565 9924,15659 9924,14661 9924,13637 10141,12718 10577,11905 11012,11092 11613,10455 12381,9994 13148,9533 14012,9303 14972,9303 16571,9303 17870,9917 18868,11146 18970,11262 19021,11396 19021,11550 19021,11755 18913,11934 18695,12087 18580,12164 18458,12203 18330,12203 18138,12203 17953,12107 17774,11915 17390,11492 16968,11175 16507,10964 16047,10753 15535,10647 14972,10647 14268,10647 13641,10817 13091,11156 12541,11495 12115,11972 11815,12587 11514,13201 11364,13893 11364,14661 11364,15416 11523,16098 11843,16706 12163,17314 12611,17791 13187,18137 13763,18483 14422,18655 15164,18655 16187,18655 17013,18380 17639,17829 17806,17689 17979,17618 18158,17618 18311,17618 18452,17670 18580,17772 18759,17925 18849,18098 18849,18290 18849,18457 18785,18598 18657,18713 17735,19571 16571,19999 15164,20000 Z"/>
        </g>
       </g>
       <g class="Group">
        <g class="com.sun.star.drawing.ClosedBezierShape">
         <g id="id5">
          <rect class="BoundingBox" stroke="none" fill="none" x="12314" y="15611" width="1086" height="1261"/>
          <path fill="rgb(255,255,255)" stroke="none" d="M 13399,16240 C 13399,16452 13352,16611 13259,16715 13165,16819 13030,16871 12852,16871 12675,16871 12541,16817 12450,16709 12360,16600 12315,16444 12315,16240 12315,15821 12496,15612 12858,15612 13044,15612 13180,15663 13268,15765 13355,15867 13399,16025 13399,16240 Z M 13187,16240 C 13187,16072 13162,15951 13112,15875 13063,15799 12979,15761 12862,15761 12744,15761 12658,15799 12606,15877 12553,15954 12527,16075 12527,16240 12527,16400 12553,16520 12605,16601 12656,16681 12738,16721 12849,16721 12971,16721 13057,16683 13109,16605 13161,16527 13187,16405 13187,16240 Z"/>
         </g>
        </g>
        <g class="com.sun.star.drawing.ClosedBezierShape">
         <g id="id6">
          <rect class="BoundingBox" stroke="none" fill="none" x="13639" y="15612" width="1611" height="1238"/>
          <path fill="rgb(255,255,255)" stroke="none" d="M 14348,16849 L 14348,16079 C 14348,15962 14332,15881 14300,15836 14268,15791 14210,15769 14126,15769 14040,15769 13972,15801 13922,15867 13872,15933 13847,16026 13847,16146 L 13847,16849 13646,16849 13646,15894 C 13646,15753 13644,15666 13640,15635 L 13830,15635 C 13831,15639 13832,15649 13833,15665 13833,15682 13834,15701 13835,15722 13836,15743 13838,15784 13839,15843 L 13843,15843 C 13886,15757 13936,15697 13992,15663 14048,15629 14116,15613 14197,15613 14289,15613 14361,15631 14415,15668 14468,15704 14505,15763 14526,15843 L 14530,15843 C 14572,15761 14622,15702 14682,15666 14741,15631 14813,15613 14897,15613 15020,15613 15109,15646 15165,15712 15220,15779 15248,15888 15248,16040 L 15248,16849 15049,16849 15049,16079 C 15049,15962 15033,15881 15001,15836 14968,15791 14910,15769 14827,15769 14739,15769 14670,15801 14621,15867 14572,15932 14548,16025 14548,16146 L 14548,16849 14348,16849 Z"/>
         </g>
        </g>
        <g class="com.sun.star.drawing.ClosedBezierShape">
         <g id="id7">
          <rect class="BoundingBox" stroke="none" fill="none" x="15552" y="15634" width="977" height="1238"/>
          <path fill="rgb(255,255,255)" stroke="none" d="M 15755,15634 L 15755,16404 C 15755,16484 15763,16546 15779,16590 15794,16634 15820,16666 15854,16686 15888,16705 15939,16715 16005,16715 16102,16715 16179,16681 16235,16615 16291,16548 16319,16456 16319,16338 L 16319,15634 16521,15634 16521,16589 C 16521,16730 16523,16817 16528,16848 L 16337,16848 C 16336,16844 16336,16834 16335,16818 16334,16802 16333,16783 16332,16761 16331,16740 16330,16700 16328,16641 L 16325,16641 C 16278,16724 16225,16784 16164,16819 16103,16853 16027,16871 15937,16871 15804,16871 15706,16838 15645,16771 15583,16705 15552,16596 15552,16443 L 15552,15634 15755,15634 Z"/>
         </g>
        </g>
        <g class="com.sun.star.drawing.ClosedBezierShape">
         <g id="id8">
          <rect class="BoundingBox" stroke="none" fill="none" x="16824" y="15612" width="977" height="1238"/>
          <path fill="rgb(255,255,255)" stroke="none" d="M 17597,16849 L 17597,16079 C 17597,15999 17589,15937 17573,15893 17558,15849 17533,15817 17498,15798 17464,15778 17413,15769 17347,15769 17250,15769 17173,15802 17117,15868 17061,15935 17033,16027 17033,16146 L 17033,16849 16831,16849 16831,15894 C 16831,15753 16829,15666 16825,15635 L 17015,15635 C 17016,15639 17017,15649 17017,15665 17018,15682 17019,15701 17020,15722 17021,15743 17023,15784 17024,15843 L 17028,15843 C 17074,15759 17128,15700 17188,15665 17249,15630 17325,15613 17415,15613 17548,15613 17646,15646 17707,15712 17769,15778 17800,15888 17800,16040 L 17800,16849 17597,16849 Z"/>
         </g>
        </g>
        <g class="com.sun.star.drawing.ClosedBezierShape">
         <g id="id9">
          <rect class="BoundingBox" stroke="none" fill="none" x="18094" y="15186" width="204" height="1667"/>
          <path fill="rgb(255,255,255)" stroke="none" d="M 18095,15379 C 18095,15315 18095,15250 18095,15186 18162,15186 18229,15186 18296,15186 18296,15250 18296,15315 18296,15379 18229,15379 18162,15379 18095,15379 Z M 18095,16852 C 18095,16447 18095,16043 18095,15638 18162,15638 18229,15638 18296,15638 18296,16043 18296,16447 18296,16852 18229,16852 18162,16852 18095,16852 Z"/>
         </g>
        </g>
        <g class="com.sun.star.drawing.ClosedBezierShape">
         <g id="id10">
          <rect class="BoundingBox" stroke="none" fill="none" x="18544" y="15612" width="992" height="1260"/>
          <path fill="rgb(255,255,255)" stroke="none" d="M 18755,16236 C 18755,16397 18781,16517 18832,16595 18883,16672 18959,16711 19061,16711 19133,16711 19193,16692 19241,16653 19290,16614 19319,16554 19331,16474 L 19535,16487 C 19519,16604 19469,16697 19385,16766 19302,16836 19196,16871 19067,16871 18898,16871 18768,16817 18679,16710 18589,16603 18545,16446 18545,16240 18545,16036 18590,15881 18679,15774 18769,15666 18898,15613 19065,15613 19189,15613 19292,15645 19374,15709 19456,15773 19507,15862 19528,15975 L 19320,15991 C 19310,15923 19283,15870 19241,15830 19198,15791 19138,15771 19059,15771 18952,15771 18875,15806 18827,15877 18779,15948 18755,16068 18755,16236 Z"/>
         </g>
        </g>
        <g class="com.sun.star.drawing.ClosedBezierShape">
         <g id="id11">
          <rect class="BoundingBox" stroke="none" fill="none" x="19690" y="15612" width="1181" height="1260"/>
          <path fill="rgb(255,255,255)" stroke="none" d="M 20057,16871 C 19935,16871 19844,16839 19783,16774 19721,16710 19691,16622 19691,16510 19691,16384 19732,16288 19815,16220 19897,16153 20030,16117 20214,16113 L 20487,16108 20487,16042 C 20487,15943 20466,15873 20424,15830 20382,15788 20316,15766 20227,15766 20136,15766 20070,15782 20029,15812 19988,15843 19964,15892 19955,15959 L 19745,15940 C 19779,15722 19941,15613 20231,15613 20383,15613 20498,15648 20575,15717 20652,15787 20691,15888 20691,16021 L 20691,16543 C 20691,16603 20698,16648 20714,16679 20730,16709 20760,16724 20804,16724 20823,16724 20845,16721 20870,16716 L 20870,16842 C 20819,16854 20767,16860 20714,16860 20639,16860 20585,16840 20551,16801 20517,16762 20498,16700 20493,16616 L 20487,16616 C 20435,16709 20375,16774 20307,16813 20238,16851 20155,16871 20057,16871 Z M 20103,16719 C 20177,16719 20243,16702 20301,16669 20358,16635 20403,16589 20437,16530 20470,16472 20487,16411 20487,16349 L 20487,16249 20266,16254 C 20171,16255 20099,16265 20050,16283 20001,16301 19964,16329 19937,16366 19911,16403 19898,16452 19898,16513 19898,16579 19916,16630 19951,16665 19987,16701 20038,16719 20103,16719 Z"/>
         </g>
        </g>
        <g class="com.sun.star.drawing.ClosedBezierShape">
         <g id="id12">
          <rect class="BoundingBox" stroke="none" fill="none" x="20963" y="15613" width="992" height="1725"/>
          <path fill="rgb(255,255,255)" stroke="none" d="M 21174,16237 C 21174,16398 21199,16517 21250,16595 21301,16673 21378,16712 21480,16712 21552,16712 21612,16692 21660,16653 21708,16614 21738,16555 21749,16474 L 21953,16488 C 21937,16604 21888,16697 21804,16767 21720,16836 21614,16871 21486,16871 21316,16871 21187,16817 21097,16710 21008,16603 20963,16446 20963,16241 20963,16037 21008,15882 21098,15774 21187,15667 21316,15613 21483,15613 21607,15613 21710,15646 21792,15710 21874,15774 21925,15863 21946,15976 L 21739,15991 C 21728,15924 21702,15871 21659,15831 21617,15791 21556,15772 21478,15772 21371,15772 21294,15807 21246,15878 21198,15949 21174,16068 21174,16237 Z M 21708,17133 C 21708,17269 21605,17337 21400,17337 21358,17337 21324,17335 21300,17333 L 21300,17223 C 21336,17227 21368,17229 21396,17229 21506,17229 21561,17199 21561,17138 21561,17080 21511,17051 21412,17051 21380,17051 21358,17052 21348,17053 L 21421,16848 21541,16848 21497,16963 C 21567,16963 21620,16979 21655,17009 21690,17039 21708,17081 21708,17133 Z"/>
         </g>
        </g>
        <g class="com.sun.star.drawing.ClosedBezierShape">
         <g id="id13">
          <rect class="BoundingBox" stroke="none" fill="none" x="22109" y="15200" width="1181" height="1672"/>
          <path fill="rgb(255,255,255)" stroke="none" d="M 22476,16871 C 22354,16871 22262,16839 22201,16774 22140,16710 22109,16622 22109,16510 22109,16384 22151,16288 22233,16220 22316,16153 22449,16117 22633,16113 L 22905,16108 22905,16042 C 22905,15943 22884,15873 22842,15830 22800,15788 22735,15766 22645,15766 22555,15766 22489,15782 22448,15812 22407,15843 22382,15892 22374,15959 L 22163,15940 C 22197,15722 22360,15613 22650,15613 22802,15613 22917,15648 22994,15717 23071,15787 23109,15888 23109,16021 L 23109,16543 C 23109,16603 23117,16648 23133,16679 23148,16709 23178,16724 23222,16724 23242,16724 23264,16721 23288,16716 L 23288,16842 C 23238,16854 23186,16860 23133,16860 23058,16860 23004,16840 22970,16801 22936,16762 22916,16700 22912,16616 L 22905,16616 C 22854,16709 22794,16774 22725,16813 22657,16851 22574,16871 22476,16871 Z M 22522,16719 C 22596,16719 22661,16702 22719,16669 22777,16635 22822,16589 22855,16530 22888,16472 22905,16411 22905,16349 L 22905,16249 22684,16254 C 22589,16255 22517,16265 22469,16283 22420,16301 22382,16329 22356,16366 22330,16403 22317,16452 22317,16513 22317,16579 22334,16630 22370,16665 22405,16701 22456,16719 22522,16719 Z M 22838,15501 C 22806,15501 22775,15494 22744,15480 22712,15466 22682,15451 22653,15434 22624,15417 22596,15402 22569,15388 22543,15374 22518,15368 22495,15368 22454,15368 22423,15379 22403,15402 22383,15425 22369,15458 22363,15501 L 22261,15501 C 22269,15424 22282,15367 22300,15327 22318,15288 22342,15257 22372,15235 22402,15212 22441,15200 22488,15200 22521,15200 22553,15207 22585,15221 22616,15235 22646,15250 22675,15267 22704,15284 22732,15299 22758,15313 22784,15326 22808,15333 22830,15333 22905,15333 22948,15289 22961,15200 L 23064,15200 C 23052,15311 23027,15389 22989,15433 22952,15478 22901,15501 22838,15501 Z"/>
         </g>
        </g>
        <g class="com.sun.star.drawing.ClosedBezierShape">
         <g id="id14">
          <rect class="BoundingBox" stroke="none" fill="none" x="23380" y="15611" width="1086" height="1261"/>
          <path fill="rgb(255,255,255)" stroke="none" d="M 24465,16240 C 24465,16452 24418,16611 24324,16715 24231,16819 24095,16871 23918,16871 23741,16871 23607,16817 23516,16709 23426,16600 23381,16444 23381,16240 23381,15821 23562,15612 23924,15612 24110,15612 24246,15663 24333,15765 24421,15867 24465,16025 24465,16240 Z M 24253,16240 C 24253,16072 24228,15951 24178,15875 24129,15799 24045,15761 23928,15761 23810,15761 23724,15799 23672,15877 23619,15954 23593,16075 23593,16240 23593,16400 23619,16520 23670,16601 23722,16681 23804,16721 23915,16721 24036,16721 24123,16683 24175,16605 24227,16527 24253,16405 24253,16240 Z"/>
         </g>
        </g>
       </g>
      </g>
     </g>
    </g>
   </g>
  </g>
 </g>
</svg>