<?xml version="1.0" encoding="UTF-8"?>
<!DOCTYPE svg PUBLIC "-//W3C//DTD SVG 1.1//EN" "http://www.w3.org/Graphics/SVG/1.1/DTD/svg11.dtd">
<svg version="1.2" width="297mm" height="210mm" viewBox="0 0 29700 21000" preserveAspectRatio="xMidYMid" fill-rule="evenodd" stroke-width="28.222" stroke-linejoin="round" xmlns="http://www.w3.org/2000/svg" xmlns:ooo="http://xml.openoffice.org/svg/export" xmlns:xlink="http://www.w3.org/1999/xlink" xmlns:presentation="http://sun.com/xmlns/staroffice/presentation" xmlns:smil="http://www.w3.org/2001/SMIL20/" xmlns:anim="urn:oasis:names:tc:opendocument:xmlns:animation:1.0" xml:space="preserve">
 <defs class="ClipPathGroup">
  <clipPath id="presentation_clip_path" clipPathUnits="userSpaceOnUse">
   <rect x="0" y="0" width="29700" height="21000"/>
  </clipPath>
  <clipPath id="presentation_clip_path_shrink" clipPathUnits="userSpaceOnUse">
   <rect x="29" y="21" width="29641" height="20958"/>
  </clipPath>
 </defs>
 <defs class="TextShapeIndex">
  <g ooo:slide="id1" ooo:id-list="id3 id4 id5 id6 id7 id8 id9 id10"/>
 </defs>
 <defs class="EmbeddedBulletChars">
  <g id="bullet-char-template-57356" transform="scale(0.00048828125,-0.00048828125)">
   <path d="M 580,1141 L 1163,571 580,0 -4,571 580,1141 Z"/>
  </g>
  <g id="bullet-char-template-57354" transform="scale(0.00048828125,-0.00048828125)">
   <path d="M 8,1128 L 1137,1128 1137,0 8,0 8,1128 Z"/>
  </g>
  <g id="bullet-char-template-10146" transform="scale(0.00048828125,-0.00048828125)">
   <path d="M 174,0 L 602,739 174,1481 1456,739 174,0 Z M 1358,739 L 309,1346 659,739 1358,739 Z"/>
  </g>
  <g id="bullet-char-template-10132" transform="scale(0.00048828125,-0.00048828125)">
   <path d="M 2015,739 L 1276,0 717,0 1260,543 174,543 174,936 1260,936 717,1481 1274,1481 2015,739 Z"/>
  </g>
  <g id="bullet-char-template-10007" transform="scale(0.00048828125,-0.00048828125)">
   <path d="M 0,-2 C -7,14 -16,27 -25,37 L 356,567 C 262,823 215,952 215,954 215,979 228,992 255,992 264,992 276,990 289,987 310,991 331,999 354,1012 L 381,999 492,748 772,1049 836,1024 860,1049 C 881,1039 901,1025 922,1006 886,937 835,863 770,784 769,783 710,716 594,584 L 774,223 C 774,196 753,168 711,139 L 727,119 C 717,90 699,76 672,76 641,76 570,178 457,381 L 164,-76 C 142,-110 111,-127 72,-127 30,-127 9,-110 8,-76 1,-67 -2,-52 -2,-32 -2,-23 -1,-13 0,-2 Z"/>
  </g>
  <g id="bullet-char-template-10004" transform="scale(0.00048828125,-0.00048828125)">
   <path d="M 285,-33 C 182,-33 111,30 74,156 52,228 41,333 41,471 41,549 55,616 82,672 116,743 169,778 240,778 293,778 328,747 346,684 L 369,508 C 377,444 397,411 428,410 L 1163,1116 C 1174,1127 1196,1133 1229,1133 1271,1133 1292,1118 1292,1087 L 1292,965 C 1292,929 1282,901 1262,881 L 442,47 C 390,-6 338,-33 285,-33 Z"/>
  </g>
  <g id="bullet-char-template-9679" transform="scale(0.00048828125,-0.00048828125)">
   <path d="M 813,0 C 632,0 489,54 383,161 276,268 223,411 223,592 223,773 276,916 383,1023 489,1130 632,1184 813,1184 992,1184 1136,1130 1245,1023 1353,916 1407,772 1407,592 1407,412 1353,268 1245,161 1136,54 992,0 813,0 Z"/>
  </g>
  <g id="bullet-char-template-8226" transform="scale(0.00048828125,-0.00048828125)">
   <path d="M 346,457 C 273,457 209,483 155,535 101,586 74,649 74,723 74,796 101,859 155,911 209,963 273,989 346,989 419,989 480,963 531,910 582,859 608,796 608,723 608,648 583,586 532,535 482,483 420,457 346,457 Z"/>
  </g>
  <g id="bullet-char-template-8211" transform="scale(0.00048828125,-0.00048828125)">
   <path d="M -4,459 L 1135,459 1135,606 -4,606 -4,459 Z"/>
  </g>
  <g id="bullet-char-template-61548" transform="scale(0.00048828125,-0.00048828125)">
   <path d="M 173,740 C 173,903 231,1043 346,1159 462,1274 601,1332 765,1332 928,1332 1067,1274 1183,1159 1299,1043 1357,903 1357,740 1357,577 1299,437 1183,322 1067,206 928,148 765,148 601,148 462,206 346,322 231,437 173,577 173,740 Z"/>
  </g>
 </defs>
 <g>
  <g id="id2" class="Master_Slide">
   <g id="bg-id2" class="Background"/>
   <g id="bo-id2" class="BackgroundObjects"/>
  </g>
 </g>
 <g class="SlideGroup">
  <g>
   <g id="container-id1">
    <g id="id1" class="Slide" clip-path="url(#presentation_clip_path)">
     <g class="Page">
      <g class="Group">
       <g class="com.sun.star.drawing.ClosedBezierShape">
        <g id="id3">
         <rect class="BoundingBox" stroke="none" fill="none" x="1608" y="949" width="8568" height="19103"/>
         <path fill="none" stroke="rgb(255,255,255)" stroke-width="100" stroke-linejoin="round" d="M 9176,2703 C 8105,2703 7298,3060 6755,3773 6212,4487 5940,5436 5940,6620 L 5940,7179 8859,7179 C 9119,7179 9326,7256 9480,7410 9634,7564 9711,7763 9711,8006 9711,8233 9634,8424 9480,8578 9326,8732 9119,8809 8859,8809 L 5940,8809 5940,19052 C 5940,19344 5855,19575 5685,19745 5514,19915 5275,20000 4967,20000 4707,20000 4492,19915 4322,19745 4152,19575 4067,19344 4067,19052 L 4067,8809 2510,8809 C 2250,8809 2043,8732 1889,8578 1735,8424 1658,8233 1658,8006 1658,7763 1735,7564 1889,7410 2043,7256 2250,7179 2510,7179 L 4067,7179 4067,6717 C 4067,4982 4513,3595 5405,2557 6297,1519 7554,1000 9176,1000 9451,1000 9678,1081 9857,1243 10035,1405 10124,1608 10124,1851 10124,2095 10035,2297 9857,2460 9678,2622 9451,2703 9176,2703 Z"/>
        </g>
       </g>
       <g class="Group">
        <g class="com.sun.star.drawing.ClosedBezierShape">
         <g id="id4">
          <rect class="BoundingBox" stroke="none" fill="none" x="7381" y="10843" width="3671" height="3978"/>
          <path fill="none" stroke="rgb(255,255,255)" stroke-width="100" stroke-linejoin="round" d="M 9255,10894 C 9598,10894 9902,10974 10166,11134 10430,11294 10636,11515 10782,11798 10928,12081 11001,12404 11001,12766 11001,12840 10978,12899 10931,12943 10885,12987 10825,13009 10750,13009 L 7940,13009 C 7977,13390 8125,13698 8385,13934 8645,14171 8969,14289 9359,14289 9526,14289 9694,14260 9863,14202 10033,14144 10168,14071 10270,13983 10331,13937 10393,13914 10458,13914 10509,13914 10560,13932 10611,13969 10672,14025 10702,14087 10702,14157 10702,14217 10676,14271 10625,14317 10472,14447 10277,14555 10041,14640 9804,14726 9577,14769 9359,14769 8988,14769 8656,14687 8364,14522 8072,14358 7843,14128 7679,13833 7514,13539 7432,13206 7432,12835 7432,12459 7509,12124 7665,11830 7820,11535 8036,11305 8312,11141 8588,10976 8902,10894 9255,10894 Z"/>
          <path fill="none" stroke="rgb(255,255,255)" stroke-width="100" stroke-linejoin="round" d="M 9255,11374 C 8902,11374 8610,11483 8378,11701 8146,11919 8005,12207 7954,12564 L 10500,12564 C 10463,12207 10333,11919 10110,11701 9888,11483 9602,11374 9255,11374 Z"/>
         </g>
        </g>
        <g class="com.sun.star.drawing.ClosedBezierShape">
         <g id="id5">
          <rect class="BoundingBox" stroke="none" fill="none" x="11854" y="10836" width="2454" height="3950"/>
          <path fill="none" stroke="rgb(255,255,255)" stroke-width="100" stroke-linejoin="round" d="M 13623,10887 C 13818,10887 13972,10912 14086,10963 14199,11014 14256,11086 14256,11179 14256,11207 14254,11228 14249,11242 14231,11307 14202,11351 14162,11374 14123,11397 14068,11409 13999,11409 13957,11409 13885,11404 13783,11395 13746,11390 13690,11388 13616,11388 13268,11388 12984,11480 12764,11666 12543,11852 12433,12093 12433,12390 L 12433,14470 C 12433,14553 12410,14618 12364,14664 12317,14711 12252,14734 12169,14734 12085,14734 12021,14711 11974,14664 11928,14618 11905,14553 11905,14470 L 11905,11193 C 11905,11109 11928,11044 11974,10998 12021,10952 12085,10929 12169,10929 12252,10929 12317,10952 12364,10998 12410,11044 12433,11109 12433,11193 L 12433,11499 C 12568,11304 12739,11153 12948,11047 13157,10940 13382,10887 13623,10887 Z"/>
         </g>
        </g>
        <g class="com.sun.star.drawing.ClosedBezierShape">
         <g id="id6">
          <rect class="BoundingBox" stroke="none" fill="none" x="15040" y="10836" width="3629" height="3950"/>
          <path fill="none" stroke="rgb(255,255,255)" stroke-width="100" stroke-linejoin="round" d="M 16893,10887 C 17222,10887 17518,10956 17780,11096 18042,11235 18247,11438 18395,11704 18544,11971 18618,12290 18618,12661 L 18618,14470 C 18618,14544 18592,14607 18541,14658 18490,14709 18428,14734 18354,14734 18275,14734 18210,14709 18159,14658 18108,14607 18082,14544 18082,14470 L 18082,12661 C 18082,12248 17967,11934 17738,11718 17508,11503 17208,11395 16837,11395 16610,11395 16404,11439 16221,11527 16038,11615 15893,11737 15786,11892 15680,12047 15626,12220 15626,12410 L 15626,14470 C 15626,14549 15602,14612 15553,14661 15505,14710 15441,14734 15362,14734 15283,14734 15218,14710 15167,14661 15116,14612 15091,14549 15091,14470 L 15091,11200 C 15091,11121 15116,11056 15167,11005 15218,10954 15283,10929 15362,10929 15441,10929 15505,10954 15553,11005 15602,11056 15626,11121 15626,11200 L 15626,11436 C 15779,11265 15965,11130 16183,11033 16401,10936 16637,10887 16893,10887 Z"/>
         </g>
        </g>
        <g class="com.sun.star.drawing.ClosedBezierShape">
         <g id="id7">
          <rect class="BoundingBox" stroke="none" fill="none" x="19551" y="10843" width="3970" height="3978"/>
          <path fill="none" stroke="rgb(255,255,255)" stroke-width="100" stroke-linejoin="round" d="M 21535,10894 C 21897,10894 22225,10978 22520,11148 22814,11317 23046,11550 23215,11847 23385,12144 23469,12473 23469,12835 L 23469,14470 C 23469,14544 23444,14607 23393,14658 23342,14709 23277,14734 23198,14734 23119,14734 23054,14710 23003,14661 22952,14613 22927,14549 22927,14470 L 22927,14053 C 22764,14275 22558,14450 22308,14578 22057,14705 21781,14769 21480,14769 21127,14769 20808,14685 20523,14515 20238,14346 20013,14114 19848,13819 19684,13525 19601,13197 19601,12835 19601,12473 19686,12144 19855,11847 20024,11550 20256,11317 20551,11148 20845,10978 21174,10894 21535,10894 Z"/>
          <path fill="none" stroke="rgb(255,255,255)" stroke-width="100" stroke-linejoin="round" d="M 21535,14282 C 21800,14282 22039,14220 22252,14094 22465,13969 22633,13796 22756,13576 22879,13356 22941,13109 22941,12835 22941,12561 22879,12314 22756,12094 22633,11874 22465,11700 22252,11572 22039,11445 21800,11381 21535,11381 21271,11381 21031,11445 20815,11572 20600,11700 20430,11874 20307,12094 20184,12314 20123,12561 20123,12835 20123,13109 20184,13356 20307,13576 20430,13796 20600,13969 20815,14094 21031,14220 21271,14282 21535,14282 Z"/>
         </g>
        </g>
        <g class="com.sun.star.drawing.ClosedBezierShape">
         <g id="id8">
          <rect class="BoundingBox" stroke="none" fill="none" x="24465" y="10836" width="3629" height="3950"/>
          <path fill="none" stroke="rgb(255,255,255)" stroke-width="100" stroke-linejoin="round" d="M 26317,10887 C 26647,10887 26942,10956 27204,11096 27466,11235 27672,11438 27820,11704 27968,11971 28043,12290 28043,12661 L 28043,14470 C 28043,14544 28017,14607 27966,14658 27915,14709 27852,14734 27778,14734 27699,14734 27634,14709 27583,14658 27532,14607 27507,14544 27507,14470 L 27507,12661 C 27507,12248 27392,11934 27163,11718 26933,11503 26633,11395 26262,11395 26034,11395 25829,11439 25646,11527 25463,11615 25318,11737 25211,11892 25104,12047 25051,12220 25051,12410 L 25051,14470 C 25051,14549 25027,14612 24978,14661 24929,14710 24865,14734 24787,14734 24708,14734 24643,14710 24592,14661 24541,14612 24515,14549 24515,14470 L 24515,11200 C 24515,11121 24541,11056 24592,11005 24643,10954 24708,10929 24787,10929 24865,10929 24929,10954 24978,11005 25027,11056 25051,11121 25051,11200 L 25051,11436 C 25204,11265 25390,11130 25608,11033 25826,10936 26062,10887 26317,10887 Z"/>
         </g>
        </g>
       </g>
       <g class="Group">
        <g class="com.sun.star.drawing.ClosedBezierShape">
         <g id="id9">
          <rect class="BoundingBox" stroke="none" fill="none" x="7381" y="14481" width="3971" height="5571"/>
          <path fill="none" stroke="rgb(255,255,255)" stroke-width="100" stroke-linejoin="round" d="M 11293,16361 C 11298,16375 11300,16396 11300,16424 L 11300,18059 C 11300,18421 11215,18750 11046,19047 10877,19344 10645,19577 10350,19746 10056,19915 9728,20000 9366,20000 9004,20000 8676,19915 8381,19746 8087,19577 7855,19344 7686,19047 7516,18750 7432,18421 7432,18059 7432,17697 7514,17369 7679,17074 7843,16780 8068,16548 8354,16379 8639,16209 8958,16125 9310,16125 9612,16125 9888,16188 10138,16316 10389,16443 10595,16619 10757,16841 L 10757,14803 C 10757,14724 10783,14659 10834,14608 10885,14557 10950,14532 11029,14532 11108,14532 11171,14557 11220,14608 11269,14659 11293,14724 11293,14803 L 11293,16361 Z"/>
          <path fill="none" stroke="rgb(255,255,255)" stroke-width="100" stroke-linejoin="round" d="M 9366,19513 C 9630,19513 9869,19449 10082,19322 10296,19194 10464,19020 10587,18800 10710,18580 10771,18333 10771,18059 10771,17980 10769,17922 10764,17885 10760,17876 10757,17864 10757,17850 10711,17488 10559,17191 10302,16959 10044,16728 9732,16612 9366,16612 9101,16612 8861,16674 8646,16799 8430,16925 8261,17097 8138,17318 8015,17538 7954,17785 7954,18059 7954,18333 8015,18580 8138,18800 8261,19020 8430,19194 8646,19322 8861,19449 9101,19513 9366,19513 Z"/>
         </g>
        </g>
        <g class="com.sun.star.drawing.ClosedBezierShape">
         <g id="id10">
          <rect class="BoundingBox" stroke="none" fill="none" x="12302" y="16074" width="3970" height="3978"/>
          <path fill="none" stroke="rgb(255,255,255)" stroke-width="100" stroke-linejoin="round" d="M 14287,20000 C 13920,20000 13590,19917 13295,19750 13001,19583 12770,19352 12603,19057 12436,18763 12352,18432 12352,18066 12352,17699 12436,17368 12603,17071 12770,16774 13001,16542 13295,16375 13590,16208 13920,16125 14287,16125 14653,16125 14982,16208 15274,16375 15567,16542 15797,16774 15967,17071 16136,17368 16221,17699 16221,18066 16221,18432 16137,18763 15970,19057 15803,19352 15573,19583 15278,19750 14983,19917 14653,20000 14287,20000 Z"/>
          <path fill="none" stroke="rgb(255,255,255)" stroke-width="100" stroke-linejoin="round" d="M 14287,19513 C 14556,19513 14797,19450 15010,19325 15223,19200 15390,19027 15511,18807 15632,18586 15692,18339 15692,18066 15692,17787 15632,17538 15511,17318 15390,17097 15223,16925 15010,16799 14797,16674 14556,16612 14287,16612 14022,16612 13782,16674 13566,16799 13351,16925 13182,17097 13059,17318 12936,17538 12874,17787 12874,18066 12874,18339 12936,18586 13059,18807 13182,19027 13351,19200 13566,19325 13782,19450 14022,19513 14287,19513 Z"/>
         </g>
        </g>
       </g>
      </g>
     </g>
    </g>
   </g>
  </g>
 </g>
</svg>